<svg xmlns="http://www.w3.org/2000/svg" version="1.1" xmlns:xlink="http://www.w3.org/1999/xlink" xmlns:svgjs="http://svgjs.dev/svgjs" width="1500" height="1500" viewBox="0 0 1500 1500"><rect width="1500" height="1500" fill="#ffffff"></rect><g transform="matrix(0.6666666666666666,0,0,0.6666666666666666,249.39393939393938,619.1024170762526)"><svg viewBox="0 0 396 104" data-background-color="#162836" preserveAspectRatio="xMidYMid meet" height="393" width="1500" xmlns="http://www.w3.org/2000/svg" xmlns:xlink="http://www.w3.org/1999/xlink"><g id="tight-bounds" transform="matrix(1,0,0,1,0.2400000000000091,-0.040654106604051776)"><svg viewBox="0 0 395.52 104.08130821320809" height="104.08130821320809" width="395.52"><g><svg viewBox="0 0 489.1878338333647 128.73005083778838" height="104.08130821320809" width="395.52"><g><rect width="5.769516624865196" height="120.19051476381902" x="72.79487054654876" y="4.269768036984679" fill="#000000" opacity="1" stroke-width="0" stroke="transparent" fill-opacity="1" class="rect-qz-0" data-fill-palette-color="primary" rx="1%" id="qz-0" data-palette-color="#cf7650"></rect></g><g transform="matrix(1,0,0,1,93.66783383336472,14.285644267302928)"><svg viewBox="0 0 395.52 100.15876230318253" height="100.15876230318253" width="395.52"><g id="textblocktransform"><svg viewBox="0 0 395.52 100.15876230318253" height="100.15876230318253" width="395.52" id="textblock"><g><svg viewBox="0 0 395.52 63.97705256760863" height="63.97705256760863" width="395.52"><g transform="matrix(1,0,0,1,0,0)"><svg width="395.52" viewBox="4.15 -38.28 241.01999999999998 38.99" height="63.97705256760863" data-palette-color="#cf7650"><path d="M4.15 0L4.15-34.52 15.77-34.52Q17.29-34.52 19.1-34.41 20.92-34.3 22.75-33.97 24.58-33.64 26.29-33.04 28-32.45 29.33-31.48 30.66-30.52 31.46-29.11 32.25-27.71 32.25-25.78L32.25-25.78Q32.25-24.63 31.98-23.5 31.71-22.36 31.02-21.41 30.32-20.46 29.11-19.75 27.91-19.04 26.03-18.75L26.03-18.75Q28.08-18.63 29.68-17.81 31.27-16.99 32.37-15.77 33.47-14.55 34.05-13.07 34.62-11.6 34.62-10.16L34.62-10.16Q34.62-8.23 33.84-6.41 33.06-4.59 31.21-3.16 29.37-1.73 26.34-0.87 23.32 0 18.82 0L18.82 0 4.15 0ZM15.09-14.06L15.09-6.25 19.51-6.25Q21.61-6.25 22.64-7.34 23.68-8.42 23.68-10.16L23.68-10.16Q23.68-11.18 23.33-11.91 22.97-12.65 22.02-13.12 21.07-13.6 19.4-13.83 17.72-14.06 15.09-14.06L15.09-14.06ZM15.09-20.31L18.51-20.31Q19.65-20.31 20.61-20.64 21.56-20.97 22.24-21.51 22.92-22.05 23.3-22.75 23.68-23.46 23.68-24.22L23.68-24.22Q23.68-25.39 23.22-26.15 22.75-26.9 21.73-27.34 20.7-27.78 19.07-27.95 17.43-28.13 15.09-28.13L15.09-28.13 15.09-20.31ZM47.97 0.71L47.97 0.71Q46.41 0.71 44.98 0.27 43.55-0.17 42.45-1.07 41.35-1.98 40.71-3.36 40.06-4.74 40.06-6.62L40.06-6.62Q40.06-8.42 40.65-9.75 41.23-11.08 42.22-12.04 43.21-12.99 44.54-13.61 45.87-14.23 47.36-14.59 48.85-14.94 50.42-15.08 52-15.21 53.49-15.21L53.49-15.21Q54.51-15.21 55.47-15.16 56.42-15.11 57.25-15.04L57.25-15.04Q57.2-16.58 56.66-17.59 56.13-18.6 55.25-19.2 54.37-19.8 53.2-20.04 52.02-20.29 50.73-20.29L50.73-20.29Q49.53-20.29 48.28-20.13 47.02-19.97 45.82-19.74 44.63-19.51 43.54-19.24 42.45-18.97 41.62-18.75L41.62-18.75 41.62-25.59Q42.82-25.85 44.2-26.11 45.58-26.37 47.07-26.56 48.56-26.76 50.11-26.88 51.66-27 53.17-27L53.17-27Q55.05-27 56.87-26.77 58.69-26.54 60.31-26 61.94-25.46 63.32-24.56 64.69-23.66 65.68-22.33 66.67-21 67.23-19.19 67.8-17.38 67.8-15.01L67.8-15.01 67.8 0 57.74 0 57.74-4.37Q57.15-3.17 56.1-2.23 55.05-1.29 53.73-0.63 52.41 0.02 50.93 0.37 49.44 0.71 47.97 0.71ZM52.1-5.03L52.1-5.03Q52.78-5.03 53.67-5.41 54.56-5.79 55.36-6.57 56.15-7.35 56.7-8.54 57.25-9.74 57.25-11.4L57.25-11.4 56.44-11.4Q55.27-11.4 54.04-11.16 52.81-10.91 51.78-10.42 50.75-9.94 50.1-9.23 49.44-8.52 49.44-7.59L49.44-7.59Q49.44-6.86 49.68-6.37 49.92-5.88 50.3-5.58 50.68-5.27 51.16-5.15 51.63-5.03 52.1-5.03ZM74.87 0L74.87-26.34 84.91-26.34Q84.86-25.71 84.83-24.94 84.81-24.17 84.81-23.33 84.81-22.49 84.81-21.63 84.81-20.78 84.81-20L84.81-20Q85.3-21.19 86.08-22.45 86.86-23.71 87.92-24.71 88.98-25.71 90.34-26.35 91.69-27 93.38-27L93.38-27Q93.7-27 94.07-26.97 94.45-26.93 94.82-26.86 95.19-26.78 95.52-26.67 95.84-26.56 96.06-26.42L96.06-26.42 95.21-16.36Q94.11-16.77 92.89-16.98 91.67-17.19 90.77-17.19L90.77-17.19Q89.52-17.19 88.58-16.88 87.64-16.58 86.98-16.09 86.32-15.6 85.94-15.01 85.57-14.43 85.42-13.87L85.42-13.87 85.42 0 74.87 0ZM124.92-7.98L124.92-1.05Q122.62-0.29 119.96 0.21 117.3 0.71 114.42 0.71L114.42 0.71Q111.27 0.71 108.42-0.12 105.56-0.95 103.39-2.71 101.21-4.47 99.93-7.17 98.65-9.86 98.65-13.6L98.65-13.6Q98.65-15.72 99.31-17.54 99.97-19.36 101.1-20.85 102.24-22.34 103.76-23.49 105.29-24.63 107.04-25.42 108.78-26.2 110.64-26.6 112.49-27 114.27-27L114.27-27Q117.08-27 119.23-26.38 121.38-25.76 122.81-24.71 124.24-23.66 124.97-22.27 125.7-20.87 125.7-19.31L125.7-19.31Q125.7-17.41 125.05-16.06 124.41-14.72 123.32-13.81 122.23-12.89 120.81-12.37 119.38-11.84 117.79-11.56 116.2-11.28 114.56-11.21 112.91-11.13 111.42-11.13L111.42-11.13Q110.91-11.13 110.43-11.15 109.95-11.16 109.49-11.16L109.49-11.16Q109.68-9.77 110.26-8.81 110.83-7.86 111.7-7.26 112.57-6.67 113.7-6.41 114.84-6.15 116.13-6.15L116.13-6.15Q117.11-6.15 118.22-6.3 119.33-6.45 120.46-6.7 121.6-6.96 122.73-7.29 123.87-7.62 124.92-7.98L124.92-7.98ZM109.27-14.92L109.27-14.92Q109.86-14.94 110.77-14.99 111.69-15.04 112.71-15.16 113.74-15.28 114.76-15.5 115.79-15.72 116.62-16.06 117.45-16.41 117.96-16.92 118.47-17.43 118.47-18.16L118.47-18.16Q118.47-19.41 117.49-20.15 116.5-20.9 114.74-20.9L114.74-20.9Q113.93-20.9 113.01-20.67 112.08-20.43 111.27-19.78 110.47-19.12 109.9-17.94 109.34-16.77 109.27-14.92ZM144.01-20.19L144.01 0 133.46 0 133.46-20.19 129.26-20.19 129.26-26.34 133.41-26.34Q133.41-29.35 134.22-31.58 135.02-33.81 136.51-35.3 138-36.79 140.11-37.54 142.23-38.28 144.86-38.28L144.86-38.28Q147.01-38.28 148.84-37.82 150.67-37.35 152.21-36.72L152.21-36.72 151.43-30.44Q150.01-30.79 149.07-31.02 148.13-31.25 147.26-31.25L147.26-31.25Q146.13-31.25 145.49-30.83 144.84-30.42 144.51-29.74 144.18-29.05 144.09-28.16 144.01-27.27 144.01-26.34L144.01-26.34 151.38-26.34Q151.04-24.73 150.84-23.24 150.65-21.75 150.65-20.19L150.65-20.19 144.01-20.19ZM168.96 0.71L168.96 0.71Q166.08 0.71 163.83 0.17 161.58-0.37 159.9-1.32 158.22-2.27 157.03-3.58 155.85-4.88 155.11-6.42 154.38-7.96 154.05-9.67 153.72-11.38 153.72-13.13L153.72-13.13Q153.72-14.87 154.05-16.56 154.38-18.26 155.11-19.81 155.85-21.36 157.02-22.67 158.19-23.97 159.89-24.94 161.58-25.9 163.83-26.45 166.08-27 168.96-27L168.96-27Q171.84-27 174.08-26.45 176.33-25.9 178.03-24.94 179.72-23.97 180.9-22.67 182.07-21.36 182.8-19.81 183.53-18.26 183.86-16.56 184.19-14.87 184.19-13.13L184.19-13.13Q184.19-11.38 183.86-9.67 183.53-7.96 182.8-6.42 182.07-4.88 180.88-3.58 179.7-2.27 178.01-1.32 176.33-0.37 174.08 0.17 171.84 0.71 168.96 0.71ZM164.27-13.13L164.27-13.13Q164.27-11.82 164.51-10.56 164.76-9.3 165.31-8.31 165.86-7.32 166.75-6.73 167.64-6.13 168.96-6.13L168.96-6.13Q170.28-6.13 171.17-6.73 172.06-7.32 172.61-8.31 173.16-9.3 173.4-10.56 173.64-11.82 173.64-13.13L173.64-13.13Q173.64-14.45 173.4-15.71 173.16-16.97 172.61-17.96 172.06-18.95 171.17-19.56 170.28-20.17 168.96-20.17L168.96-20.17Q167.64-20.17 166.75-19.56 165.86-18.95 165.31-17.96 164.76-16.97 164.51-15.71 164.27-14.45 164.27-13.13ZM203.33 0.71L203.33 0.71Q200.45 0.71 198.2 0.17 195.96-0.37 194.27-1.32 192.59-2.27 191.4-3.58 190.22-4.88 189.49-6.42 188.75-7.96 188.42-9.67 188.1-11.38 188.1-13.13L188.1-13.13Q188.1-14.87 188.42-16.56 188.75-18.26 189.49-19.81 190.22-21.36 191.39-22.67 192.56-23.97 194.26-24.94 195.96-25.9 198.2-26.45 200.45-27 203.33-27L203.33-27Q206.21-27 208.46-26.45 210.7-25.9 212.4-24.94 214.1-23.97 215.27-22.67 216.44-21.36 217.17-19.81 217.9-18.26 218.23-16.56 218.56-14.87 218.56-13.13L218.56-13.13Q218.56-11.38 218.23-9.67 217.9-7.96 217.17-6.42 216.44-4.88 215.26-3.58 214.07-2.27 212.39-1.32 210.7-0.37 208.46 0.17 206.21 0.71 203.33 0.71ZM198.64-13.13L198.64-13.13Q198.64-11.82 198.89-10.56 199.13-9.3 199.68-8.31 200.23-7.32 201.12-6.73 202.01-6.13 203.33-6.13L203.33-6.13Q204.65-6.13 205.54-6.73 206.43-7.32 206.98-8.31 207.53-9.3 207.77-10.56 208.02-11.82 208.02-13.13L208.02-13.13Q208.02-14.45 207.77-15.71 207.53-16.97 206.98-17.96 206.43-18.95 205.54-19.56 204.65-20.17 203.33-20.17L203.33-20.17Q202.01-20.17 201.12-19.56 200.23-18.95 199.68-17.96 199.13-16.97 198.89-15.71 198.64-14.45 198.64-13.13ZM237.43 0.71L237.43 0.71Q235.16 0.71 233.09 0.16 231.01-0.39 229.44-1.7 227.86-3 226.92-5.16 225.98-7.32 225.98-10.55L225.98-10.55 225.98-20.29 221.13-20.29 221.13-21.88 232.62-34.38 236.53-34.38 236.53-26.34 244.34-26.34Q244.05-24.88 243.82-23.39 243.59-21.9 243.56-20.29L243.56-20.29 236.53-20.29 236.53-10.64Q236.53-9.77 236.66-8.95 236.8-8.13 237.21-7.51 237.63-6.88 238.41-6.51 239.19-6.13 240.49-6.13L240.49-6.13Q241.32-6.13 242.32-6.29 243.32-6.45 244.59-6.88L244.59-6.88 245.17-0.56Q243.63 0 241.65 0.35 239.66 0.71 237.43 0.71Z" opacity="1" transform="matrix(1,0,0,1,0,0)" fill="#000000" class="wordmark-text-0" data-fill-palette-color="primary" id="text-0"></path></svg></g></svg></g><g transform="matrix(1,0,0,1,0,79.08049922955941)"><svg viewBox="0 0 232.209792 21.078263073623127" height="21.078263073623127" width="232.209792"><g transform="matrix(1,0,0,1,0,0)"><svg width="232.209792" viewBox="3.37 -34.72 471.42 42.78" height="21.078263073623127" data-palette-color="#cf7650"><path d="M7.81-32.08L7.81-3.74 20.19-3.74 20.19 0 3.37 0 3.37-32.08 7.81-32.08ZM34.08-24.24L34.08-24.24Q36.23-24.24 38.06-23.54 39.89-22.83 41.23-21.46 42.58-20.09 43.33-18.12 44.09-16.14 44.09-13.57L44.09-13.57Q44.09-12.57 43.87-12.24 43.65-11.91 43.06-11.91L43.06-11.91 27.1-11.91Q27.15-9.67 27.71-8 28.27-6.32 29.26-5.22 30.25-4.13 31.61-3.58 32.98-3.03 34.67-3.03L34.67-3.03Q36.23-3.03 37.38-3.38 38.52-3.74 39.34-4.17 40.16-4.61 40.72-4.97 41.28-5.32 41.7-5.32L41.7-5.32Q41.97-5.32 42.16-5.21 42.36-5.1 42.5-4.91L42.5-4.91 43.72-3.34Q42.92-2.39 41.83-1.7 40.74-1 39.5-0.55 38.25-0.1 36.92 0.12 35.59 0.34 34.3 0.34L34.3 0.34Q31.81 0.34 29.71-0.49 27.61-1.32 26.08-2.94 24.56-4.57 23.7-6.95 22.85-9.33 22.85-12.43L22.85-12.43Q22.85-14.92 23.62-17.08 24.39-19.24 25.84-20.84 27.29-22.44 29.38-23.34 31.47-24.24 34.08-24.24ZM34.15-21.12L34.15-21.12Q31.15-21.12 29.4-19.36 27.66-17.6 27.22-14.55L27.22-14.55 40.23-14.55Q40.23-15.99 39.82-17.2 39.4-18.41 38.62-19.27 37.84-20.14 36.7-20.63 35.57-21.12 34.15-21.12ZM56.07 0.37L56.07 0.37Q53.32 0.37 51.83-1.22 50.34-2.81 50.34-5.76L50.34-5.76 50.34-20.31 47.6-20.31Q47.24-20.31 46.98-20.56 46.72-20.8 46.72-21.26L46.72-21.26 46.72-22.97 50.48-23.46 51.48-30.81Q51.53-31.18 51.79-31.4 52.05-31.62 52.44-31.62L52.44-31.62 54.63-31.62 54.63-23.44 61.2-23.44 61.2-20.31 54.63-20.31 54.63-6.05Q54.63-4.59 55.31-3.86 55.98-3.13 57.05-3.13L57.05-3.13Q57.69-3.13 58.14-3.3 58.59-3.47 58.91-3.69 59.22-3.91 59.46-4.08 59.69-4.25 59.88-4.25L59.88-4.25Q60.1-4.25 60.24-4.15 60.37-4.05 60.49-3.83L60.49-3.83 61.76-1.78Q60.66-0.76 59.17-0.2 57.69 0.37 56.07 0.37ZM66.3-33.76L70.01-33.76 70.01-26.93 69.6-23.29Q69.52-22.53 69.21-22.11 68.89-21.68 68.13-21.68L68.13-21.68Q67.5-21.68 67.14-22.09 66.79-22.51 66.72-23.29L66.72-23.29 66.3-26.93 66.3-33.76ZM91.2-21.46L90.25-19.92Q89.96-19.38 89.37-19.38L89.37-19.38Q89-19.38 88.58-19.65 88.15-19.92 87.55-20.23 86.95-20.53 86.14-20.8 85.32-21.07 84.19-21.07L84.19-21.07Q83.24-21.07 82.49-20.8 81.73-20.53 81.19-20.07 80.65-19.6 80.36-18.98 80.07-18.36 80.07-17.65L80.07-17.65Q80.07-16.72 80.56-16.11 81.04-15.5 81.85-15.06 82.66-14.62 83.69-14.27 84.73-13.92 85.81-13.55 86.88-13.18 87.92-12.7 88.95-12.21 89.76-11.5 90.57-10.79 91.05-9.78 91.54-8.76 91.54-7.32L91.54-7.32Q91.54-5.66 90.98-4.26 90.42-2.86 89.33-1.83 88.25-0.81 86.65-0.22 85.05 0.37 82.97 0.37L82.97 0.37Q80.61 0.37 78.66-0.44 76.72-1.25 75.38-2.54L75.38-2.54 76.38-4.15Q76.58-4.47 76.85-4.64 77.11-4.81 77.53-4.81L77.53-4.81Q77.97-4.81 78.41-4.48 78.85-4.15 79.47-3.75 80.09-3.34 80.97-3.02 81.85-2.69 83.17-2.69L83.17-2.69Q84.29-2.69 85.11-3 85.93-3.32 86.46-3.85 87-4.37 87.27-5.08 87.54-5.79 87.54-6.57L87.54-6.57Q87.54-7.54 87.04-8.19 86.54-8.84 85.73-9.29 84.93-9.74 83.89-10.08 82.85-10.42 81.76-10.8 80.68-11.18 79.64-11.66 78.6-12.13 77.8-12.88 76.99-13.62 76.49-14.7 75.99-15.77 75.99-17.31L75.99-17.31Q75.99-18.7 76.53-19.96 77.07-21.22 78.09-22.17 79.12-23.12 80.63-23.68 82.14-24.24 84.1-24.24L84.1-24.24Q86.32-24.24 88.12-23.51 89.93-22.78 91.2-21.46L91.2-21.46ZM112.97 0L108.68 0 108.68-20.29 106.26-20.61Q105.75-20.65 105.43-20.92 105.11-21.19 105.11-21.68L105.11-21.68 105.11-23.44 108.68-23.44 108.68-25.71Q108.68-27.76 109.23-29.36 109.78-30.96 110.8-32.04 111.83-33.13 113.29-33.7 114.76-34.28 116.59-34.28L116.59-34.28Q117.34-34.28 118.06-34.16 118.78-34.03 119.44-33.81L119.44-33.81 119.32-31.67Q119.27-31.1 118.74-31.04 118.2-30.98 117.29-30.98L117.29-30.98Q116.27-30.98 115.45-30.71 114.63-30.44 114.05-29.81 113.46-29.17 113.14-28.14 112.83-27.1 112.83-25.59L112.83-25.59 112.83-23.44 119.25-23.44 119.25-20.31 112.97-20.31 112.97 0ZM122.47 0L122.47 0ZM123.37-23.88L127.67-23.88 127.67 0 123.37 0 123.37-23.88ZM128.5-31.35L128.5-31.35Q128.5-30.74 128.25-30.19 128.01-29.64 127.58-29.24 127.16-28.83 126.61-28.59 126.06-28.34 125.45-28.34L125.45-28.34Q124.84-28.34 124.3-28.59 123.76-28.83 123.36-29.24 122.96-29.64 122.71-30.19 122.47-30.74 122.47-31.35L122.47-31.35Q122.47-31.98 122.71-32.53 122.96-33.08 123.36-33.5 123.76-33.91 124.3-34.16 124.84-34.4 125.45-34.4L125.45-34.4Q126.06-34.4 126.61-34.16 127.16-33.91 127.58-33.5 128.01-33.08 128.25-32.53 128.5-31.98 128.5-31.35ZM138.97 0L134.67 0 134.67-23.88 137.24-23.88Q137.7-23.88 137.99-23.67 138.29-23.46 138.33-23L138.33-23 138.7-20.46Q140.24-22.17 142.14-23.21 144.05-24.24 146.54-24.24L146.54-24.24Q148.49-24.24 149.97-23.6 151.44-22.95 152.45-21.77 153.45-20.58 153.96-18.91 154.47-17.24 154.47-15.21L154.47-15.21 154.47 0 150.18 0 150.18-15.21Q150.18-17.87 148.97-19.36 147.76-20.85 145.29-20.85L145.29-20.85Q143.46-20.85 141.87-19.98 140.29-19.12 138.97-17.58L138.97-17.58 138.97 0ZM180.28 0L177.71 0Q177.25 0 176.96-0.21 176.66-0.42 176.61-0.88L176.61-0.88 176.17-3.74Q174.66-1.9 172.73-0.78 170.8 0.34 168.26 0.34L168.26 0.34Q166.24 0.34 164.59-0.45 162.94-1.25 161.77-2.78 160.6-4.32 159.96-6.6 159.33-8.89 159.33-11.87L159.33-11.87Q159.33-14.5 160.02-16.78 160.72-19.07 162.04-20.73 163.36-22.39 165.25-23.34 167.14-24.29 169.53-24.29L169.53-24.29Q171.71-24.29 173.24-23.57 174.78-22.85 175.98-21.51L175.98-21.51 175.98-34.72 180.28-34.72 180.28 0ZM169.66-3.1L169.66-3.1Q171.68-3.1 173.18-4.04 174.68-4.98 175.98-6.67L175.98-6.67 175.98-18.21Q174.83-19.75 173.49-20.37 172.15-21 170.51-21L170.51-21Q167.26-21 165.5-18.63 163.75-16.26 163.75-11.87L163.75-11.87Q163.75-9.55 164.15-7.89 164.55-6.23 165.31-5.16 166.07-4.1 167.17-3.6 168.26-3.1 169.66-3.1ZM202.83 8.06L198.53 8.06 198.53-23.88 201.1-23.88Q201.56-23.88 201.85-23.67 202.15-23.46 202.19-23L202.19-23 202.61-20.21Q204.12-22.05 206.08-23.17 208.03-24.29 210.57-24.29L210.57-24.29Q212.62-24.29 214.28-23.5 215.94-22.71 217.11-21.17 218.28-19.63 218.92-17.36 219.55-15.09 219.55-12.11L219.55-12.11Q219.55-9.47 218.84-7.19 218.14-4.91 216.81-3.23 215.48-1.56 213.57-0.61 211.67 0.34 209.27 0.34L209.27 0.34Q207.1 0.34 205.56-0.39 204.03-1.12 202.83-2.44L202.83-2.44 202.83 8.06ZM209.15-20.85L209.15-20.85Q207.15-20.85 205.62-19.92 204.1-18.99 202.83-17.29L202.83-17.29 202.83-5.76Q203.95-4.22 205.31-3.6 206.66-2.98 208.32-2.98L208.32-2.98Q211.59-2.98 213.36-5.35 215.13-7.71 215.13-12.11L215.13-12.11Q215.13-14.43 214.73-16.09 214.33-17.75 213.56-18.81 212.79-19.87 211.68-20.36 210.57-20.85 209.15-20.85ZM224.95-34.72L229.24-34.72 229.24 0 224.95 0 224.95-34.72ZM253.7 0L251.8 0Q251.16 0 250.82-0.2 250.48-0.39 250.36-1L250.36-1 249.82-3.22Q248.89-2.37 248-1.7 247.11-1.03 246.13-0.56 245.16-0.1 244.03 0.13 242.91 0.37 241.57 0.37L241.57 0.37Q240.18 0.37 238.97-0.01 237.76-0.39 236.84-1.18 235.93-1.98 235.4-3.16 234.88-4.35 234.88-5.96L234.88-5.96Q234.88-7.37 235.65-8.68 236.42-9.99 238.15-11.01 239.88-12.04 242.67-12.68 245.45-13.33 249.5-13.43L249.5-13.43 249.5-15.26Q249.5-18.04 248.32-19.45 247.14-20.85 244.86-20.85L244.86-20.85Q243.35-20.85 242.31-20.46 241.28-20.07 240.52-19.6 239.76-19.14 239.21-18.75 238.66-18.36 238.1-18.36L238.1-18.36Q237.66-18.36 237.35-18.58 237.03-18.8 236.83-19.14L236.83-19.14 236.05-20.51Q238.03-22.41 240.31-23.35 242.59-24.29 245.38-24.29L245.38-24.29Q247.38-24.29 248.94-23.65 250.5-23 251.55-21.8 252.6-20.61 253.15-18.95 253.7-17.29 253.7-15.26L253.7-15.26 253.7 0ZM242.86-2.64L242.86-2.64Q243.94-2.64 244.84-2.86 245.74-3.08 246.55-3.48 247.36-3.88 248.08-4.48 248.8-5.08 249.5-5.81L249.5-5.81 249.5-10.74Q246.65-10.62 244.65-10.27 242.64-9.91 241.39-9.33 240.13-8.74 239.57-7.95 239.01-7.15 239.01-6.18L239.01-6.18Q239.01-5.25 239.31-4.58 239.62-3.91 240.13-3.48 240.64-3.05 241.35-2.84 242.06-2.64 242.86-2.64ZM276.67-21.14L275.55-19.58Q275.36-19.31 275.17-19.18 274.99-19.04 274.65-19.04L274.65-19.04Q274.28-19.04 273.89-19.34 273.5-19.63 272.91-19.98 272.33-20.34 271.49-20.63 270.64-20.92 269.42-20.92L269.42-20.92Q267.81-20.92 266.58-20.3 265.35-19.68 264.53-18.52 263.71-17.36 263.28-15.7 262.86-14.04 262.86-11.96L262.86-11.96Q262.86-9.81 263.31-8.14 263.76-6.47 264.59-5.32 265.42-4.17 266.59-3.58 267.76-2.98 269.23-2.98L269.23-2.98Q270.64-2.98 271.55-3.34 272.45-3.71 273.06-4.15 273.67-4.59 274.07-4.96 274.48-5.32 274.92-5.32L274.92-5.32Q275.4-5.32 275.7-4.91L275.7-4.91 276.94-3.34Q276.16-2.39 275.21-1.7 274.26-1 273.16-0.55 272.06-0.1 270.88 0.12 269.69 0.34 268.47 0.34L268.47 0.34Q266.37 0.34 264.54-0.49 262.71-1.32 261.35-2.89 260-4.47 259.23-6.75 258.46-9.03 258.46-11.96L258.46-11.96Q258.46-14.62 259.17-16.88 259.88-19.14 261.23-20.78 262.59-22.41 264.58-23.33 266.57-24.24 269.15-24.24L269.15-24.24Q271.6-24.24 273.43-23.43 275.26-22.61 276.67-21.14L276.67-21.14ZM290.98-24.24L290.98-24.24Q293.13-24.24 294.96-23.54 296.79-22.83 298.13-21.46 299.47-20.09 300.23-18.12 300.99-16.14 300.99-13.57L300.99-13.57Q300.99-12.57 300.77-12.24 300.55-11.91 299.96-11.91L299.96-11.91 284-11.91Q284.04-9.67 284.61-8 285.17-6.32 286.16-5.22 287.15-4.13 288.51-3.58 289.88-3.03 291.56-3.03L291.56-3.03Q293.13-3.03 294.27-3.38 295.42-3.74 296.24-4.17 297.06-4.61 297.62-4.97 298.18-5.32 298.6-5.32L298.6-5.32Q298.86-5.32 299.06-5.21 299.25-5.1 299.4-4.91L299.4-4.91 300.62-3.34Q299.82-2.39 298.73-1.7 297.64-1 296.4-0.55 295.15-0.1 293.82 0.12 292.49 0.34 291.2 0.34L291.2 0.34Q288.71 0.34 286.61-0.49 284.51-1.32 282.98-2.94 281.46-4.57 280.6-6.95 279.75-9.33 279.75-12.43L279.75-12.43Q279.75-14.92 280.52-17.08 281.29-19.24 282.74-20.84 284.19-22.44 286.28-23.34 288.37-24.24 290.98-24.24ZM291.05-21.12L291.05-21.12Q288.05-21.12 286.3-19.36 284.56-17.6 284.12-14.55L284.12-14.55 297.13-14.55Q297.13-15.99 296.72-17.2 296.3-18.41 295.52-19.27 294.74-20.14 293.6-20.63 292.47-21.12 291.05-21.12ZM320.32-21.46L319.37-19.92Q319.08-19.38 318.49-19.38L318.49-19.38Q318.12-19.38 317.7-19.65 317.27-19.92 316.67-20.23 316.07-20.53 315.26-20.8 314.44-21.07 313.31-21.07L313.31-21.07Q312.36-21.07 311.61-20.8 310.85-20.53 310.31-20.07 309.77-19.6 309.48-18.98 309.19-18.36 309.19-17.65L309.19-17.65Q309.19-16.72 309.68-16.11 310.17-15.5 310.97-15.06 311.78-14.62 312.81-14.27 313.85-13.92 314.93-13.55 316-13.18 317.04-12.7 318.08-12.21 318.88-11.5 319.69-10.79 320.17-9.78 320.66-8.76 320.66-7.32L320.66-7.32Q320.66-5.66 320.1-4.26 319.54-2.86 318.45-1.83 317.37-0.81 315.77-0.22 314.17 0.37 312.09 0.37L312.09 0.37Q309.73 0.37 307.78-0.44 305.84-1.25 304.5-2.54L304.5-2.54 305.5-4.15Q305.7-4.47 305.97-4.64 306.23-4.81 306.65-4.81L306.65-4.81Q307.09-4.81 307.53-4.48 307.97-4.15 308.59-3.75 309.21-3.34 310.09-3.02 310.97-2.69 312.29-2.69L312.29-2.69Q313.41-2.69 314.23-3 315.05-3.32 315.59-3.85 316.12-4.37 316.39-5.08 316.66-5.79 316.66-6.57L316.66-6.57Q316.66-7.54 316.16-8.19 315.66-8.84 314.85-9.29 314.05-9.74 313.01-10.08 311.97-10.42 310.89-10.8 309.8-11.18 308.76-11.66 307.72-12.13 306.92-12.88 306.11-13.62 305.61-14.7 305.11-15.77 305.11-17.31L305.11-17.31Q305.11-18.7 305.65-19.96 306.19-21.22 307.21-22.17 308.24-23.12 309.75-23.68 311.26-24.24 313.22-24.24L313.22-24.24Q315.44-24.24 317.25-23.51 319.05-22.78 320.32-21.46L320.32-21.46ZM343.83 0.37L343.83 0.37Q341.07 0.37 339.58-1.22 338.09-2.81 338.09-5.76L338.09-5.76 338.09-20.31 335.36-20.31Q334.99-20.31 334.73-20.56 334.48-20.8 334.48-21.26L334.48-21.26 334.48-22.97 338.24-23.46 339.24-30.81Q339.29-31.18 339.54-31.4 339.8-31.62 340.19-31.62L340.19-31.62 342.39-31.62 342.39-23.44 348.95-23.44 348.95-20.31 342.39-20.31 342.39-6.05Q342.39-4.59 343.06-3.86 343.73-3.13 344.8-3.13L344.8-3.13Q345.44-3.13 345.89-3.3 346.34-3.47 346.66-3.69 346.98-3.91 347.21-4.08 347.44-4.25 347.64-4.25L347.64-4.25Q347.86-4.25 347.99-4.15 348.12-4.05 348.25-3.83L348.25-3.83 349.52-1.78Q348.42-0.76 346.93-0.2 345.44 0.37 343.83 0.37ZM363.6-24.24L363.6-24.24Q366.21-24.24 368.31-23.38 370.41-22.51 371.88-20.91 373.34-19.31 374.13-17.04 374.93-14.77 374.93-11.96L374.93-11.96Q374.93-9.13 374.13-6.86 373.34-4.59 371.88-2.99 370.41-1.39 368.31-0.52 366.21 0.34 363.6 0.34L363.6 0.34Q360.99 0.34 358.88-0.52 356.76-1.39 355.29-2.99 353.81-4.59 353.02-6.86 352.22-9.13 352.22-11.96L352.22-11.96Q352.22-14.77 353.02-17.04 353.81-19.31 355.29-20.91 356.76-22.51 358.88-23.38 360.99-24.24 363.6-24.24ZM363.6-3L363.6-3Q365.33-3 366.63-3.6 367.92-4.2 368.79-5.35 369.65-6.49 370.08-8.15 370.51-9.81 370.51-11.94L370.51-11.94Q370.51-14.06 370.08-15.72 369.65-17.38 368.79-18.53 367.92-19.68 366.63-20.29 365.33-20.9 363.6-20.9L363.6-20.9Q361.84-20.9 360.54-20.29 359.23-19.68 358.36-18.53 357.5-17.38 357.07-15.72 356.64-14.06 356.64-11.94L356.64-11.94Q356.64-9.81 357.07-8.15 357.5-6.49 358.36-5.35 359.23-4.2 360.54-3.6 361.84-3 363.6-3ZM400.24 0L388.2-32.08 391.79-32.08Q392.38-32.08 392.75-31.79 393.11-31.49 393.28-31.05L393.28-31.05 401.22-8.57Q401.51-7.81 401.79-6.92 402.07-6.03 402.29-5.05L402.29-5.05Q402.49-6.03 402.74-6.92 403-7.81 403.29-8.57L403.29-8.57 411.2-31.03Q411.35-31.45 411.74-31.76 412.13-32.08 412.69-32.08L412.69-32.08 416.28-32.08 404.24 0 400.24 0ZM419.11 0L419.11 0ZM420.01-23.88L424.31-23.88 424.31 0 420.01 0 420.01-23.88ZM425.14-31.35L425.14-31.35Q425.14-30.74 424.9-30.19 424.65-29.64 424.22-29.24 423.8-28.83 423.25-28.59 422.7-28.34 422.09-28.34L422.09-28.34Q421.48-28.34 420.94-28.59 420.4-28.83 420-29.24 419.6-29.64 419.35-30.19 419.11-30.74 419.11-31.35L419.11-31.35Q419.11-31.98 419.35-32.53 419.6-33.08 420-33.5 420.4-33.91 420.94-34.16 421.48-34.4 422.09-34.4L422.09-34.4Q422.7-34.4 423.25-34.16 423.8-33.91 424.22-33.5 424.65-33.08 424.9-32.53 425.14-31.98 425.14-31.35ZM445.43-21.46L444.47-19.92Q444.18-19.38 443.59-19.38L443.59-19.38Q443.23-19.38 442.8-19.65 442.37-19.92 441.78-20.23 441.18-20.53 440.36-20.8 439.54-21.07 438.42-21.07L438.42-21.07Q437.47-21.07 436.71-20.8 435.95-20.53 435.42-20.07 434.88-19.6 434.59-18.98 434.29-18.36 434.29-17.65L434.29-17.65Q434.29-16.72 434.78-16.11 435.27-15.5 436.08-15.06 436.88-14.62 437.92-14.27 438.96-13.92 440.03-13.55 441.1-13.18 442.14-12.7 443.18-12.21 443.99-11.5 444.79-10.79 445.28-9.78 445.77-8.76 445.77-7.32L445.77-7.32Q445.77-5.66 445.21-4.26 444.64-2.86 443.56-1.83 442.47-0.81 440.87-0.22 439.27 0.37 437.2 0.37L437.2 0.37Q434.83 0.37 432.89-0.44 430.95-1.25 429.61-2.54L429.61-2.54 430.61-4.15Q430.8-4.47 431.07-4.64 431.34-4.81 431.75-4.81L431.75-4.81Q432.19-4.81 432.63-4.48 433.07-4.15 433.69-3.75 434.32-3.34 435.2-3.02 436.08-2.69 437.39-2.69L437.39-2.69Q438.52-2.69 439.33-3 440.15-3.32 440.69-3.85 441.23-4.37 441.5-5.08 441.76-5.79 441.76-6.57L441.76-6.57Q441.76-7.54 441.26-8.19 440.76-8.84 439.96-9.29 439.15-9.74 438.11-10.08 437.08-10.42 435.99-10.8 434.9-11.18 433.87-11.66 432.83-12.13 432.02-12.88 431.22-13.62 430.72-14.7 430.22-15.77 430.22-17.31L430.22-17.31Q430.22-18.7 430.75-19.96 431.29-21.22 432.32-22.17 433.34-23.12 434.85-23.68 436.37-24.24 438.32-24.24L438.32-24.24Q440.54-24.24 442.35-23.51 444.16-22.78 445.43-21.46L445.43-21.46ZM450.14 0L450.14 0ZM451.04-23.88L455.34-23.88 455.34 0 451.04 0 451.04-23.88ZM456.17-31.35L456.17-31.35Q456.17-30.74 455.92-30.19 455.68-29.64 455.25-29.24 454.82-28.83 454.27-28.59 453.72-28.34 453.11-28.34L453.11-28.34Q452.5-28.34 451.97-28.59 451.43-28.83 451.03-29.24 450.62-29.64 450.38-30.19 450.14-30.74 450.14-31.35L450.14-31.35Q450.14-31.98 450.38-32.53 450.62-33.08 451.03-33.5 451.43-33.91 451.97-34.16 452.5-34.4 453.11-34.4L453.11-34.4Q453.72-34.4 454.27-34.16 454.82-33.91 455.25-33.5 455.68-33.08 455.92-32.53 456.17-31.98 456.17-31.35ZM469.1 0.37L469.1 0.37Q466.34 0.37 464.85-1.22 463.37-2.81 463.37-5.76L463.37-5.76 463.37-20.31 460.63-20.31Q460.26-20.31 460.01-20.56 459.75-20.8 459.75-21.26L459.75-21.26 459.75-22.97 463.51-23.46 464.51-30.81Q464.56-31.18 464.82-31.4 465.07-31.62 465.46-31.62L465.46-31.62 467.66-31.62 467.66-23.44 474.23-23.44 474.23-20.31 467.66-20.31 467.66-6.05Q467.66-4.59 468.33-3.86 469-3.13 470.08-3.13L470.08-3.13Q470.71-3.13 471.17-3.3 471.62-3.47 471.93-3.69 472.25-3.91 472.48-4.08 472.72-4.25 472.91-4.25L472.91-4.25Q473.13-4.25 473.27-4.15 473.4-4.05 473.52-3.83L473.52-3.83 474.79-1.78Q473.69-0.76 472.2-0.2 470.71 0.37 469.1 0.37Z" opacity="1" transform="matrix(1,0,0,1,0,0)" fill="#000000" class="slogan-text-1" data-fill-palette-color="secondary" id="text-1"></path></svg></g></svg></g></svg></g></svg></g><g><svg viewBox="0 0 57.691423884597995 128.73005083778838" height="128.73005083778838" width="57.691423884597995"><g><svg xmlns="http://www.w3.org/2000/svg" xmlns:xlink="http://www.w3.org/1999/xlink" version="1.1" x="0" y="0" viewBox="31.303718256872664 8.281156710739644 37.39265492308156 83.43628992130411" enable-background="new 0 0 100 100" xml:space="preserve" height="128.73005083778838" width="57.691423884597995" class="icon-icon-0" data-fill-palette-color="accent" id="icon-0"><g fill="#d5a187" data-fill-palette-color="accent"><path fill-rule="evenodd" clip-rule="evenodd" d="M40.897 18.272c3.953-4.552 9.379 4.254 4.731 6.707C41.997 26.894 38.689 20.814 40.897 18.272z" fill="#000000" data-fill-palette-color="accent"></path><g fill="#d5a187" data-fill-palette-color="accent"><path fill-rule="evenodd" clip-rule="evenodd" d="M48.746 12.395c4.7-5.823 10.858 5.594 5.669 8.935-0.697 0.448-1.938 0.66-2.47 0.541C48.11 20.997 47.042 14.51 48.746 12.395z" fill="#000000" data-fill-palette-color="accent"></path><path fill-rule="evenodd" clip-rule="evenodd" d="M60.595 8.698c2.831-1.418 6.244 0.942 7.059 4.655 0.624 2.845-0.765 6.75-2.513 7.877C59.046 25.153 56.051 10.974 60.595 8.698z" fill="#000000" data-fill-palette-color="accent"></path><path fill-rule="evenodd" clip-rule="evenodd" d="M35.484 24.974c2.7-3.558 7.031 2.618 4.789 4.85C37.484 32.598 33.725 27.289 35.484 24.974z" fill="#000000" data-fill-palette-color="accent"></path><path fill-rule="evenodd" clip-rule="evenodd" d="M31.553 31.381c2.005-3.613 6.995 1.635 4.658 4.088C34.12 37.666 30.292 33.657 31.553 31.381z" fill="#000000" data-fill-palette-color="accent"></path><path fill-rule="evenodd" clip-rule="evenodd" d="M42.28 31.732c0.982-0.931 2.638-2.465 4.191-3.567 5.666-4.014 13.551-5.454 18.074-2.712 2.774 1.683 3.927 5.051 4.114 7.497 0.177 2.34-0.293 5.618-1.023 7.466-1.672 4.219-7.556 3.527-8.497 3.342-1.767-0.351-4.008-0.608-6.188 1.309-3.163 2.777-3.06 7.421-2.002 10.522 1.15 3.365 4.058 6.742 7.027 8.853 1.804 1.283 4.009 3.367 5.718 5.692 4.292 5.839 2.126 15.014-1.304 19.087-3.403 4.039-7.819 2.67-10.919-0.517-3.433-3.526-4.888-9.53-4.401-13.136 3.214-23.871-17.071-27.518-9.42-37.971C39.195 35.486 39.941 33.95 42.28 31.732z" fill="#000000" data-fill-palette-color="accent"></path></g></g></svg></g></svg></g></svg></g><defs></defs></svg><rect width="395.52" height="104.08130821320809" fill="none" stroke="none" visibility="hidden"></rect></g></svg></g></svg>